<svg xmlns="http://www.w3.org/2000/svg" xmlns:xlink="http://www.w3.org/1999/xlink" width="500" zoomAndPan="magnify" viewBox="0 0 375 135.000003" height="180" preserveAspectRatio="xMidYMid meet" version="1.0"><defs><g/></defs><g fill="rgb(98.039246%, 39.219666%, 24.708557%)" fill-opacity="1"><g transform="translate(2.123158, 98.240994)"><g><path d="M 5.097656 3.320312 C 14.222656 3.320312 18.253906 -11.140625 18.253906 -19.914062 C 18.253906 -22.757812 18.726562 -23.941406 19.914062 -25.957031 L 32.003906 -41.722656 C 34.730469 -44.6875 36.980469 -45.042969 39.351562 -45.042969 L 61.636719 -45.042969 C 62.347656 -45.042969 62.820312 -44.804688 62.820312 -44.210938 C 62.820312 -43.855469 62.585938 -43.382812 62.109375 -42.789062 C 50.613281 -28.328125 33.308594 -2.132812 33.308594 8.414062 C 33.308594 11.378906 34.730469 12.5625 36.269531 12.5625 C 37.8125 12.5625 39.351562 11.378906 39.351562 8.414062 C 39.351562 -1.777344 58.199219 -28.804688 69.933594 -43.144531 L 86.289062 -62.230469 C 94.824219 -72.183594 103.242188 -81.785156 104.78125 -84.277344 C 105.375 -85.222656 105.609375 -85.933594 105.609375 -86.644531 C 105.609375 -88.070312 104.542969 -89.136719 103.121094 -89.136719 C 102.054688 -89.136719 100.75 -88.425781 99.804688 -86.882812 C 98.144531 -84.277344 89.136719 -74.082031 80.363281 -64.007812 L 69.460938 -51.5625 C 67.324219 -49.425781 65.785156 -49.191406 63.414062 -49.191406 L 43.027344 -49.191406 C 41.605469 -49.191406 39.589844 -49.191406 39.589844 -50.496094 C 39.589844 -50.96875 39.707031 -51.441406 40.300781 -52.152344 L 63.769531 -80.71875 C 64.242188 -81.3125 64.480469 -82.023438 64.480469 -82.734375 C 64.480469 -84.277344 63.296875 -85.578125 61.753906 -85.578125 C 60.804688 -85.578125 59.859375 -85.105469 59.265625 -84.277344 L 32.359375 -51.441406 C 30.34375 -48.953125 26.90625 -48.125 24.179688 -48.125 L 22.164062 -48.125 C 17.304688 -48.125 7.703125 -47.769531 7.703125 -41.367188 C 7.703125 -39.707031 8.058594 -37.21875 9.839844 -34.136719 L 10.3125 -33.308594 C 11.378906 -31.410156 12.445312 -28.921875 12.445312 -26.90625 C 12.445312 -26.195312 12.328125 -25.484375 11.972656 -25.011719 L 6.875 -17.898438 C 1.777344 -10.90625 0 -5.453125 0 -2.015625 C 0 1.539062 1.898438 3.320312 5.097656 3.320312 Z M 18.964844 -43.738281 L 22.640625 -43.855469 C 24.179688 -43.855469 25.128906 -43.621094 25.128906 -42.789062 C 25.128906 -42.671875 25.128906 -42.316406 24.890625 -41.960938 L 17.78125 -32.832031 C 17.425781 -32.359375 16.949219 -31.648438 16.355469 -31.648438 C 15.882812 -31.648438 15.410156 -32.121094 14.933594 -33.308594 L 13.632812 -36.507812 C 12.800781 -38.523438 12.445312 -39.945312 12.445312 -41.011719 C 12.445312 -43.5 14.699219 -43.621094 18.964844 -43.738281 Z M 5.691406 -2.609375 C 5.691406 -4.386719 7.230469 -8.179688 11.734375 -14.578125 L 12.800781 -16.121094 C 13.15625 -16.710938 13.511719 -16.949219 13.632812 -16.949219 C 13.867188 -16.949219 13.988281 -16.476562 13.988281 -16 L 13.988281 -15.410156 C 13.75 -11.734375 10.550781 -1.304688 6.757812 -1.304688 C 6.046875 -1.304688 5.691406 -1.660156 5.691406 -2.609375 Z M 5.691406 -2.609375 "/></g></g></g><g fill="rgb(98.039246%, 39.219666%, 24.708557%)" fill-opacity="1"><g transform="translate(64.585246, 98.240994)"><g><path d="M -3.554688 -12.445312 C -3.554688 -8.535156 -0.710938 -6.28125 3.320312 -6.28125 C 8.414062 -6.28125 14.816406 -9.007812 22.875 -18.371094 L 23.585938 -19.203125 C 24.0625 -19.792969 24.417969 -20.269531 24.417969 -20.863281 C 24.417969 -21.808594 23.46875 -22.640625 22.402344 -22.640625 C 21.929688 -22.640625 21.335938 -22.402344 20.863281 -21.929688 L 20.03125 -21.21875 C 17.070312 -18.726562 8.769531 -10.3125 4.621094 -10.3125 C 3.320312 -10.3125 2.371094 -11.140625 2.371094 -13.15625 C 2.371094 -13.632812 2.371094 -14.222656 2.488281 -14.460938 C 3.792969 -17.070312 9.007812 -24.417969 12.5625 -28.921875 L 15.527344 -32.597656 C 16.121094 -33.308594 16.355469 -34.136719 16.355469 -34.730469 C 16.355469 -36.152344 15.171875 -37.101562 13.867188 -37.101562 C 12.800781 -37.101562 11.496094 -36.507812 10.429688 -35.085938 L 7.46875 -31.292969 C 4.503906 -27.5 -0.355469 -21.929688 -2.371094 -17.542969 C -3.199219 -15.644531 -3.554688 -13.988281 -3.554688 -12.445312 Z M 15.171875 -41.25 C 15.171875 -39.589844 16.476562 -38.285156 18.136719 -38.285156 C 19.792969 -38.285156 21.21875 -39.589844 21.21875 -41.25 C 21.21875 -42.910156 19.792969 -44.332031 18.136719 -44.332031 C 16.476562 -44.332031 15.171875 -42.910156 15.171875 -41.25 Z M 15.171875 -41.25 "/></g></g></g><g fill="rgb(98.039246%, 39.219666%, 24.708557%)" fill-opacity="1"><g transform="translate(85.208398, 98.240994)"><g><path d="M -19.203125 33.78125 C -12.917969 33.78125 -5.570312 28.683594 4.03125 19.082031 L 4.386719 18.726562 C 8.652344 14.460938 11.496094 9.007812 15.410156 3.082031 C 17.1875 0.472656 18.136719 -0.949219 24.300781 -3.792969 C 32.242188 -7.46875 39.945312 -12.445312 46.703125 -19.082031 L 46.820312 -19.203125 C 47.175781 -19.675781 47.414062 -20.148438 47.414062 -20.625 C 47.414062 -21.691406 46.464844 -22.640625 45.398438 -22.640625 C 44.921875 -22.640625 44.332031 -22.402344 43.855469 -21.808594 C 38.996094 -15.765625 26.433594 -7.941406 23.46875 -7.941406 C 23.230469 -7.941406 23.113281 -8.058594 23.113281 -8.414062 C 23.113281 -8.535156 23.113281 -8.890625 23.351562 -9.125 C 30.105469 -15.882812 33.664062 -24.773438 39.234375 -31.171875 C 39.707031 -31.648438 39.945312 -32.121094 39.945312 -32.597656 C 39.945312 -33.898438 38.167969 -34.847656 36.746094 -34.847656 C 36.507812 -34.847656 36.152344 -34.730469 35.914062 -34.609375 C 33.542969 -34.609375 32.476562 -35.203125 31.171875 -35.796875 L 30.460938 -36.152344 C 28.566406 -37.101562 26.550781 -37.691406 24.300781 -37.691406 C 14.222656 -37.691406 -3.082031 -23.585938 -3.082031 -13.511719 C -3.082031 -9.601562 -0.355469 -6.636719 4.148438 -6.636719 C 6.28125 -6.636719 8.890625 -7.347656 11.734375 -8.890625 L 14.105469 -10.195312 C 15.054688 -10.785156 16 -11.140625 16.59375 -11.140625 C 17.304688 -11.140625 17.78125 -10.785156 17.78125 -10.3125 C 17.78125 -10.074219 17.660156 -9.957031 17.660156 -9.71875 L 15.289062 -6.164062 C 13.511719 -3.554688 11.378906 -2.726562 10.785156 -2.488281 L -0.355469 2.015625 C -7.941406 5.097656 -15.054688 7.46875 -20.507812 11.378906 C -26.789062 15.882812 -29.394531 20.742188 -29.394531 24.890625 C -29.394531 29.988281 -25.367188 33.78125 -19.203125 33.78125 Z M -24.890625 24.890625 C -24.890625 21.929688 -22.640625 18.136719 -17.542969 14.578125 C -14.105469 12.207031 3.320312 3.792969 7.230469 3.792969 C 7.941406 3.792969 8.414062 3.910156 8.414062 4.503906 L 8.296875 4.742188 C 2.964844 12.917969 -8.179688 29.515625 -19.082031 29.515625 C -22.875 29.515625 -24.890625 27.617188 -24.890625 24.890625 Z M 23.824219 -33.425781 C 26.433594 -33.425781 28.449219 -32.003906 28.449219 -29.871094 C 28.449219 -24.179688 14.34375 -12.5625 7.703125 -12.5625 C 5.332031 -12.5625 3.4375 -13.988281 3.4375 -16.59375 C 3.4375 -23.707031 16.949219 -33.425781 23.824219 -33.425781 Z M 23.824219 -33.425781 "/></g></g></g><g fill="rgb(98.039246%, 39.219666%, 24.708557%)" fill-opacity="1"><g transform="translate(128.943724, 98.240994)"><g><path d="M -8.296875 -9.125 C -8.296875 -7.585938 -6.992188 -6.28125 -5.453125 -6.28125 C -4.621094 -6.28125 -3.675781 -6.757812 -3.199219 -7.46875 L 4.03125 -18.253906 C 7.585938 -22.519531 17.898438 -33.308594 23.585938 -33.308594 C 25.601562 -33.308594 26.550781 -32.121094 26.550781 -30.460938 C 26.550781 -29.394531 26.078125 -28.09375 25.246094 -26.90625 C 23.230469 -23.941406 20.742188 -20.148438 19.558594 -17.898438 C 18.371094 -15.644531 17.78125 -13.632812 17.78125 -12.089844 C 17.78125 -9.007812 20.03125 -7.230469 23.941406 -7.230469 C 28.921875 -7.230469 33.308594 -10.195312 42.078125 -19.320312 C 42.550781 -19.914062 42.910156 -20.386719 42.910156 -20.863281 C 42.910156 -21.808594 41.839844 -22.640625 40.773438 -22.640625 C 40.183594 -22.640625 39.589844 -22.402344 39.117188 -21.808594 C 35.796875 -17.660156 28.566406 -11.734375 25.722656 -11.734375 C 24.773438 -11.734375 23.941406 -12.207031 23.941406 -13.394531 C 23.941406 -13.988281 24.0625 -14.816406 24.773438 -15.882812 L 30.699219 -25.128906 C 32.003906 -27.261719 32.597656 -29.277344 32.597656 -30.9375 C 32.597656 -34.964844 29.160156 -37.457031 24.890625 -37.457031 C 22.640625 -37.457031 20.625 -36.746094 18.726562 -35.679688 C 17.542969 -35.085938 16.355469 -34.375 15.882812 -34.375 C 15.644531 -34.375 15.527344 -34.492188 15.527344 -34.730469 C 15.527344 -34.847656 15.644531 -35.085938 15.765625 -35.203125 L 16.59375 -36.507812 C 18.253906 -39.117188 18.371094 -39.117188 21.808594 -41.25 C 27.617188 -44.804688 33.425781 -48.242188 37.101562 -52.507812 C 39.472656 -55.355469 40.300781 -57.605469 40.300781 -59.503906 C 40.300781 -62.347656 38.402344 -64.480469 35.441406 -64.480469 C 32.953125 -64.480469 29.75 -62.941406 26.3125 -59.148438 C 24.179688 -56.894531 21.808594 -53.574219 19.4375 -50.257812 L -7.824219 -10.667969 C -8.179688 -10.195312 -8.296875 -9.601562 -8.296875 -9.125 Z M 24.179688 -47.175781 C 24.179688 -48.597656 32.121094 -58.671875 34.964844 -58.671875 C 35.558594 -58.671875 36.035156 -58.199219 36.035156 -57.605469 C 36.035156 -54.644531 25.957031 -46.9375 24.417969 -46.9375 C 24.179688 -46.9375 24.179688 -47.058594 24.179688 -47.175781 Z M 24.179688 -47.175781 "/></g></g></g><g fill="rgb(98.039246%, 39.219666%, 24.708557%)" fill-opacity="1"><g transform="translate(167.938083, 98.240994)"><g/></g></g><g fill="rgb(98.039246%, 39.219666%, 24.708557%)" fill-opacity="1"><g transform="translate(209.184402, 98.240994)"><g><path d="M 10.074219 2.726562 C 21.335938 2.726562 33.425781 -11.140625 33.425781 -22.875 L 33.425781 -24.0625 L 33.308594 -24.773438 C 32.597656 -29.039062 51.679688 -30.699219 55.117188 -30.699219 C 56.066406 -30.699219 57.011719 -31.410156 57.132812 -32.476562 C 57.25 -33.425781 56.421875 -34.253906 55.355469 -34.375 L 53.457031 -34.492188 C 48.125 -34.492188 40.417969 -33.070312 32.359375 -30.582031 C 32.121094 -30.699219 31.886719 -31.054688 31.410156 -32.597656 C 30.226562 -36.390625 28.804688 -40.183594 27.144531 -43.976562 C 24.300781 -50.375 21.574219 -56.777344 21.574219 -62.703125 C 21.574219 -79.535156 43.738281 -89.015625 57.605469 -89.015625 C 62.820312 -89.015625 67.324219 -87.714844 69.816406 -84.75 L 65.429688 -81.195312 C 62.585938 -78.824219 58.316406 -74.792969 58.316406 -70.644531 C 58.316406 -69.339844 58.671875 -68.035156 59.621094 -67.089844 L 60.09375 -66.613281 C 61.28125 -65.429688 62.703125 -64.953125 64.125 -64.953125 C 70.050781 -64.953125 77.28125 -72.777344 77.28125 -80.484375 C 77.28125 -81.90625 77.046875 -83.328125 76.453125 -84.75 L 83.328125 -89.015625 C 84.511719 -89.726562 85.105469 -90.4375 85.105469 -91.152344 C 85.105469 -92.097656 84.277344 -92.929688 83.328125 -92.929688 C 82.851562 -92.929688 82.261719 -92.808594 81.550781 -92.335938 L 74.4375 -87.949219 C 70.882812 -92.574219 64.597656 -94.585938 57.605469 -94.585938 C 40.894531 -94.585938 15.882812 -82.496094 15.882812 -62.820312 C 15.882812 -56.066406 18.847656 -48.953125 21.574219 -42.910156 C 23.941406 -37.574219 25.839844 -33.070312 26.789062 -28.683594 C 12.917969 -23.46875 0 -15.410156 0 -6.28125 C 0 -1.066406 4.148438 2.726562 10.074219 2.726562 Z M 4.503906 -6.402344 C 4.503906 -12.917969 20.980469 -23.113281 25.722656 -23.113281 C 27.023438 -23.113281 27.378906 -22.285156 27.378906 -21.097656 L 27.378906 -20.625 C 26.433594 -12.445312 17.542969 -2.84375 9.484375 -2.84375 C 6.519531 -2.84375 4.503906 -4.148438 4.503906 -6.402344 Z M 61.992188 -70.644531 C 61.992188 -73.253906 66.023438 -77.046875 67.800781 -78.46875 L 71.472656 -81.429688 C 71.59375 -81.074219 71.59375 -80.839844 71.59375 -80.601562 C 71.59375 -77.046875 66.496094 -69.339844 62.941406 -69.339844 C 62.703125 -69.339844 62.585938 -69.460938 62.464844 -69.460938 C 62.230469 -69.816406 61.992188 -70.289062 61.992188 -70.644531 Z M 61.992188 -70.644531 "/></g></g></g><g fill="rgb(98.039246%, 39.219666%, 24.708557%)" fill-opacity="1"><g transform="translate(254.69758, 98.240994)"><g><path d="M 12.683594 -6.519531 C 23.46875 -6.519531 32.476562 -11.617188 40.417969 -19.320312 C 40.894531 -19.792969 41.011719 -20.269531 41.011719 -20.625 C 41.011719 -21.691406 39.945312 -22.519531 38.878906 -22.519531 C 38.402344 -22.519531 37.8125 -22.285156 37.457031 -21.929688 C 31.171875 -15.644531 23.351562 -10.667969 14.578125 -10.667969 C 10.3125 -10.667969 5.925781 -11.851562 5.925781 -15.765625 C 5.925781 -17.1875 6.402344 -18.492188 8.296875 -18.847656 C 14.933594 -19.4375 31.648438 -22.285156 31.648438 -30.816406 C 31.648438 -34.730469 28.09375 -37.691406 22.875 -37.691406 C 12.683594 -37.691406 -1.183594 -26.3125 -1.183594 -16.121094 C -1.183594 -10.550781 3.199219 -6.519531 12.683594 -6.519531 Z M 22.757812 -31.886719 C 24.417969 -31.886719 25.957031 -30.9375 25.957031 -29.515625 C 25.957031 -25.128906 13.632812 -23.46875 10.90625 -22.875 L 10.3125 -22.757812 C 9.246094 -22.757812 9.007812 -23.113281 9.007812 -23.585938 C 9.007812 -26.667969 18.964844 -31.886719 22.757812 -31.886719 Z M 22.757812 -31.886719 "/></g></g></g><g fill="rgb(98.039246%, 39.219666%, 24.708557%)" fill-opacity="1"><g transform="translate(291.914088, 98.240994)"><g><path d="M -2.726562 -13.867188 C -2.726562 -9.484375 0.355469 -6.28125 4.976562 -6.28125 C 6.875 -6.28125 9.125 -6.519531 11.496094 -8.058594 L 14.105469 -9.71875 C 15.882812 -10.785156 17.425781 -11.734375 18.492188 -11.734375 C 19.082031 -11.734375 19.558594 -11.496094 19.792969 -10.90625 C 20.742188 -7.941406 23.585938 -6.164062 26.90625 -6.164062 C 34.136719 -6.164062 43.382812 -14.222656 48.953125 -19.082031 C 49.546875 -19.675781 49.902344 -20.386719 49.902344 -20.980469 C 49.902344 -21.929688 49.191406 -22.757812 48.125 -22.757812 C 47.414062 -22.757812 46.703125 -22.402344 45.871094 -21.691406 C 42.789062 -19.082031 35.203125 -11.734375 29.75 -11.734375 C 27.734375 -11.734375 27.261719 -12.800781 27.261719 -13.988281 C 27.261719 -19.082031 35.203125 -27.378906 38.285156 -29.75 C 39.589844 -30.816406 39.945312 -31.648438 39.945312 -32.242188 C 39.945312 -33.664062 38.523438 -34.964844 36.980469 -34.964844 C 36.625 -34.964844 36.269531 -34.847656 35.914062 -34.730469 C 33.664062 -34.730469 32.597656 -35.320312 31.171875 -35.914062 L 30.582031 -36.152344 C 28.566406 -36.980469 26.550781 -37.691406 24.417969 -37.691406 C 14.222656 -37.691406 -2.726562 -23.941406 -2.726562 -13.867188 Z M 3.910156 -16.355469 C 3.910156 -23.585938 17.78125 -33.664062 24.300781 -33.664062 C 26.550781 -33.664062 28.09375 -32.476562 28.09375 -30.34375 C 28.09375 -24.535156 14.222656 -12.5625 7.824219 -12.5625 C 5.453125 -12.5625 3.910156 -13.867188 3.910156 -16.355469 Z M 3.910156 -16.355469 "/></g></g></g><g fill="rgb(98.039246%, 39.219666%, 24.708557%)" fill-opacity="1"><g transform="translate(337.901359, 98.240994)"><g><path d="M -6.28125 -10.074219 C -6.28125 -4.976562 0.472656 -2.132812 5.453125 -2.132812 C 8.535156 -2.132812 12.089844 -3.320312 14.816406 -5.453125 C 17.304688 -6.757812 29.160156 -14.699219 33.664062 -19.082031 L 33.898438 -19.203125 C 34.375 -19.675781 34.609375 -20.148438 34.609375 -20.742188 C 34.609375 -21.691406 33.664062 -22.519531 32.476562 -22.519531 C 32.003906 -22.519531 31.410156 -22.402344 30.9375 -21.929688 L 30.9375 -21.808594 C 28.09375 -18.964844 23.113281 -15.171875 20.863281 -15.171875 C 17.304688 -15.171875 16.710938 -24.417969 16.710938 -26.667969 C 16.710938 -31.410156 19.320312 -34.019531 24.300781 -35.558594 C 25.011719 -35.796875 26.433594 -36.152344 26.433594 -37.929688 C 26.433594 -39.828125 24.773438 -40.773438 22.996094 -40.773438 C 20.980469 -40.773438 18.492188 -39.589844 16.59375 -38.285156 C 13.867188 -36.390625 11.378906 -33.542969 8.769531 -30.816406 L 4.742188 -26.433594 L 0 -21.691406 C -0.238281 -21.453125 -0.355469 -21.097656 -0.355469 -20.742188 C -0.355469 -19.675781 0.59375 -18.609375 1.777344 -18.609375 C 2.132812 -18.609375 2.726562 -18.847656 3.082031 -19.320312 C 5.453125 -22.519531 8.414062 -24.0625 9.363281 -24.0625 C 11.378906 -24.0625 12.917969 -16.121094 12.917969 -13.867188 C 12.917969 -10.195312 8.652344 -7.585938 4.976562 -7.585938 C 2.84375 -7.585938 0.828125 -8.535156 0 -10.667969 C -0.59375 -12.328125 -1.898438 -13.15625 -3.320312 -13.15625 C -5.214844 -13.15625 -6.28125 -11.972656 -6.28125 -10.074219 Z M -6.28125 -10.074219 "/></g></g></g></svg>