<svg xmlns="http://www.w3.org/2000/svg" xmlns:xlink="http://www.w3.org/1999/xlink" width="500" zoomAndPan="magnify" viewBox="0 0 375 374.999991" height="500" preserveAspectRatio="xMidYMid meet" version="1.0"><defs><g/></defs><g fill="rgb(98.039246%, 39.219666%, 24.708557%)" fill-opacity="1"><g transform="translate(0.0000045, 92.762462)"><g><path d="M 4.472656 2.910156 C 12.480469 2.910156 16.015625 -9.777344 16.015625 -17.472656 C 16.015625 -19.96875 16.433594 -21.007812 17.472656 -22.777344 L 28.078125 -36.605469 C 30.472656 -39.207031 32.449219 -39.519531 34.527344 -39.519531 L 54.078125 -39.519531 C 54.703125 -39.519531 55.117188 -39.3125 55.117188 -38.792969 C 55.117188 -38.480469 54.910156 -38.0625 54.496094 -37.542969 C 44.40625 -24.855469 29.222656 -1.871094 29.222656 7.382812 C 29.222656 9.984375 30.472656 11.023438 31.824219 11.023438 C 33.175781 11.023438 34.527344 9.984375 34.527344 7.382812 C 34.527344 -1.558594 51.0625 -25.273438 61.359375 -37.855469 L 75.710938 -54.597656 C 83.199219 -63.335938 90.582031 -71.757812 91.933594 -73.941406 C 92.453125 -74.773438 92.664062 -75.398438 92.664062 -76.023438 C 92.664062 -77.269531 91.726562 -78.207031 90.480469 -78.207031 C 89.542969 -78.207031 88.398438 -77.582031 87.566406 -76.230469 C 86.109375 -73.941406 78.207031 -65 70.511719 -56.160156 L 60.941406 -45.238281 C 59.070312 -43.367188 57.71875 -43.160156 55.640625 -43.160156 L 37.75 -43.160156 C 36.503906 -43.160156 34.734375 -43.160156 34.734375 -44.304688 C 34.734375 -44.71875 34.839844 -45.136719 35.359375 -45.757812 L 55.949219 -70.824219 C 56.367188 -71.34375 56.574219 -71.96875 56.574219 -72.589844 C 56.574219 -73.941406 55.535156 -75.085938 54.183594 -75.085938 C 53.351562 -75.085938 52.519531 -74.671875 52 -73.941406 L 28.390625 -45.136719 C 26.625 -42.953125 23.609375 -42.222656 21.214844 -42.222656 L 19.449219 -42.222656 C 15.183594 -42.222656 6.761719 -41.910156 6.761719 -36.296875 C 6.761719 -34.839844 7.070312 -32.65625 8.632812 -29.953125 L 9.046875 -29.222656 C 9.984375 -27.558594 10.917969 -25.375 10.917969 -23.609375 C 10.917969 -22.984375 10.816406 -22.359375 10.503906 -21.945312 L 6.03125 -15.703125 C 1.558594 -9.566406 0 -4.785156 0 -1.769531 C 0 1.351562 1.664062 2.910156 4.472656 2.910156 Z M 16.640625 -38.375 L 19.863281 -38.480469 C 21.214844 -38.480469 22.046875 -38.269531 22.046875 -37.542969 C 22.046875 -37.4375 22.046875 -37.128906 21.839844 -36.816406 L 15.601562 -28.808594 C 15.289062 -28.390625 14.871094 -27.765625 14.351562 -27.765625 C 13.9375 -27.765625 13.519531 -28.183594 13.105469 -29.222656 L 11.960938 -32.03125 C 11.230469 -33.800781 10.917969 -35.046875 10.917969 -35.984375 C 10.917969 -38.167969 12.894531 -38.269531 16.640625 -38.375 Z M 4.992188 -2.289062 C 4.992188 -3.847656 6.34375 -7.175781 10.296875 -12.792969 L 11.230469 -14.144531 C 11.542969 -14.664062 11.855469 -14.871094 11.960938 -14.871094 C 12.167969 -14.871094 12.273438 -14.457031 12.273438 -14.039062 L 12.273438 -13.519531 C 12.0625 -10.296875 9.253906 -1.144531 5.929688 -1.144531 C 5.304688 -1.144531 4.992188 -1.457031 4.992188 -2.289062 Z M 4.992188 -2.289062 "/></g></g></g><g fill="rgb(98.039246%, 39.219666%, 24.708557%)" fill-opacity="1"><g transform="translate(54.803789, 92.762462)"><g><path d="M -3.121094 -10.917969 C -3.121094 -7.488281 -0.625 -5.511719 2.910156 -5.511719 C 7.382812 -5.511719 13 -7.902344 20.070312 -16.121094 L 20.695312 -16.847656 C 21.113281 -17.367188 21.421875 -17.785156 21.421875 -18.304688 C 21.421875 -19.136719 20.589844 -19.863281 19.65625 -19.863281 C 19.238281 -19.863281 18.71875 -19.65625 18.304688 -19.238281 L 17.574219 -18.617188 C 14.976562 -16.433594 7.695312 -9.046875 4.054688 -9.046875 C 2.910156 -9.046875 2.078125 -9.777344 2.078125 -11.542969 C 2.078125 -11.960938 2.078125 -12.480469 2.183594 -12.6875 C 3.328125 -14.976562 7.902344 -21.421875 11.023438 -25.375 L 13.625 -28.597656 C 14.144531 -29.222656 14.351562 -29.953125 14.351562 -30.472656 C 14.351562 -31.71875 13.3125 -32.550781 12.167969 -32.550781 C 11.230469 -32.550781 10.085938 -32.03125 9.152344 -30.785156 L 6.550781 -27.457031 C 3.953125 -24.128906 -0.3125 -19.238281 -2.078125 -15.390625 C -2.808594 -13.726562 -3.121094 -12.273438 -3.121094 -10.917969 Z M 13.3125 -36.191406 C 13.3125 -34.734375 14.457031 -33.589844 15.910156 -33.589844 C 17.367188 -33.589844 18.617188 -34.734375 18.617188 -36.191406 C 18.617188 -37.648438 17.367188 -38.894531 15.910156 -38.894531 C 14.457031 -38.894531 13.3125 -37.648438 13.3125 -36.191406 Z M 13.3125 -36.191406 "/></g></g></g><g fill="rgb(98.039246%, 39.219666%, 24.708557%)" fill-opacity="1"><g transform="translate(72.898393, 92.762462)"><g><path d="M -16.847656 29.640625 C -11.335938 29.640625 -4.886719 25.167969 3.535156 16.742188 L 3.847656 16.433594 C 7.59375 12.6875 10.085938 7.902344 13.519531 2.703125 C 15.078125 0.414062 15.910156 -0.832031 21.320312 -3.328125 C 28.289062 -6.550781 35.046875 -10.917969 40.976562 -16.742188 L 41.078125 -16.847656 C 41.390625 -17.265625 41.597656 -17.679688 41.597656 -18.097656 C 41.597656 -19.03125 40.765625 -19.863281 39.832031 -19.863281 C 39.414062 -19.863281 38.894531 -19.65625 38.480469 -19.136719 C 34.214844 -13.832031 23.191406 -6.96875 20.589844 -6.96875 C 20.382812 -6.96875 20.28125 -7.070312 20.28125 -7.382812 C 20.28125 -7.488281 20.28125 -7.800781 20.488281 -8.007812 C 26.414062 -13.9375 29.535156 -21.734375 34.421875 -27.351562 C 34.839844 -27.765625 35.046875 -28.183594 35.046875 -28.597656 C 35.046875 -29.742188 33.488281 -30.574219 32.238281 -30.574219 C 32.03125 -30.574219 31.71875 -30.472656 31.511719 -30.367188 C 29.429688 -30.367188 28.496094 -30.886719 27.351562 -31.40625 L 26.726562 -31.71875 C 25.0625 -32.550781 23.296875 -33.070312 21.320312 -33.070312 C 12.480469 -33.070312 -2.703125 -20.695312 -2.703125 -11.855469 C -2.703125 -8.425781 -0.3125 -5.824219 3.640625 -5.824219 C 5.511719 -5.824219 7.800781 -6.449219 10.296875 -7.800781 L 12.375 -8.945312 C 13.207031 -9.464844 14.039062 -9.777344 14.558594 -9.777344 C 15.183594 -9.777344 15.601562 -9.464844 15.601562 -9.046875 C 15.601562 -8.839844 15.496094 -8.734375 15.496094 -8.527344 L 13.414062 -5.40625 C 11.855469 -3.121094 9.984375 -2.390625 9.464844 -2.183594 L -0.3125 1.769531 C -6.96875 4.472656 -13.207031 6.550781 -17.992188 9.984375 C -23.503906 13.9375 -25.792969 18.199219 -25.792969 21.839844 C -25.792969 26.3125 -22.253906 29.640625 -16.847656 29.640625 Z M -21.839844 21.839844 C -21.839844 19.238281 -19.863281 15.910156 -15.390625 12.792969 C -12.375 10.710938 2.910156 3.328125 6.34375 3.328125 C 6.96875 3.328125 7.382812 3.433594 7.382812 3.953125 L 7.28125 4.160156 C 2.601562 11.335938 -7.175781 25.894531 -16.742188 25.894531 C -20.070312 25.894531 -21.839844 24.230469 -21.839844 21.839844 Z M 20.902344 -29.328125 C 23.191406 -29.328125 24.960938 -28.078125 24.960938 -26.207031 C 24.960938 -21.214844 12.582031 -11.023438 6.761719 -11.023438 C 4.679688 -11.023438 3.015625 -12.273438 3.015625 -14.558594 C 3.015625 -20.800781 14.871094 -29.328125 20.902344 -29.328125 Z M 20.902344 -29.328125 "/></g></g></g><g fill="rgb(98.039246%, 39.219666%, 24.708557%)" fill-opacity="1"><g transform="translate(111.271452, 92.762462)"><g><path d="M -7.28125 -8.007812 C -7.28125 -6.65625 -6.136719 -5.511719 -4.785156 -5.511719 C -4.054688 -5.511719 -3.222656 -5.929688 -2.808594 -6.550781 L 3.535156 -16.015625 C 6.65625 -19.757812 15.703125 -29.222656 20.695312 -29.222656 C 22.464844 -29.222656 23.296875 -28.183594 23.296875 -26.726562 C 23.296875 -25.792969 22.878906 -24.648438 22.152344 -23.609375 C 20.382812 -21.007812 18.199219 -17.679688 17.160156 -15.703125 C 16.121094 -13.726562 15.601562 -11.960938 15.601562 -10.609375 C 15.601562 -7.902344 17.574219 -6.34375 21.007812 -6.34375 C 25.375 -6.34375 29.222656 -8.945312 36.917969 -16.953125 C 37.335938 -17.472656 37.648438 -17.886719 37.648438 -18.304688 C 37.648438 -19.136719 36.710938 -19.863281 35.777344 -19.863281 C 35.253906 -19.863281 34.734375 -19.65625 34.320312 -19.136719 C 31.40625 -15.496094 25.0625 -10.296875 22.566406 -10.296875 C 21.734375 -10.296875 21.007812 -10.710938 21.007812 -11.75 C 21.007812 -12.273438 21.113281 -13 21.734375 -13.9375 L 26.9375 -22.046875 C 28.078125 -23.917969 28.597656 -25.6875 28.597656 -27.144531 C 28.597656 -30.679688 25.582031 -32.863281 21.839844 -32.863281 C 19.863281 -32.863281 18.097656 -32.238281 16.433594 -31.304688 C 15.390625 -30.785156 14.351562 -30.160156 13.9375 -30.160156 C 13.726562 -30.160156 13.625 -30.261719 13.625 -30.472656 C 13.625 -30.574219 13.726562 -30.785156 13.832031 -30.886719 L 14.558594 -32.03125 C 16.015625 -34.320312 16.121094 -34.320312 19.136719 -36.191406 C 24.230469 -39.3125 29.328125 -42.328125 32.550781 -46.070312 C 34.632812 -48.566406 35.359375 -50.542969 35.359375 -52.207031 C 35.359375 -54.703125 33.695312 -56.574219 31.09375 -56.574219 C 28.910156 -56.574219 26.105469 -55.222656 23.085938 -51.894531 C 21.214844 -49.917969 19.136719 -47.007812 17.054688 -44.09375 L -6.863281 -9.359375 C -7.175781 -8.945312 -7.28125 -8.425781 -7.28125 -8.007812 Z M 21.214844 -41.390625 C 21.214844 -42.640625 28.183594 -51.480469 30.679688 -51.480469 C 31.199219 -51.480469 31.617188 -51.0625 31.617188 -50.542969 C 31.617188 -47.941406 22.777344 -41.183594 21.421875 -41.183594 C 21.214844 -41.183594 21.214844 -41.289062 21.214844 -41.390625 Z M 21.214844 -41.390625 "/></g></g></g><g fill="rgb(98.039246%, 39.219666%, 24.708557%)" fill-opacity="1"><g transform="translate(145.484821, 92.762462)"><g/></g></g><g fill="rgb(98.039246%, 39.219666%, 24.708557%)" fill-opacity="1"><g transform="translate(181.674042, 92.762462)"><g><path d="M 8.839844 2.390625 C 18.71875 2.390625 29.328125 -9.777344 29.328125 -20.070312 L 29.328125 -21.113281 L 29.222656 -21.734375 C 28.597656 -25.480469 45.34375 -26.9375 48.359375 -26.9375 C 49.191406 -26.9375 50.023438 -27.558594 50.128906 -28.496094 C 50.230469 -29.328125 49.503906 -30.054688 48.566406 -30.160156 L 46.902344 -30.261719 C 42.222656 -30.261719 35.464844 -29.015625 28.390625 -26.832031 C 28.183594 -26.9375 27.976562 -27.246094 27.558594 -28.597656 C 26.519531 -31.925781 25.273438 -35.253906 23.816406 -38.582031 C 21.320312 -44.199219 18.925781 -49.816406 18.925781 -55.015625 C 18.925781 -69.78125 38.375 -78.101562 50.542969 -78.101562 C 55.117188 -78.101562 59.070312 -76.957031 61.253906 -74.359375 L 57.40625 -71.238281 C 54.910156 -69.160156 51.167969 -65.621094 51.167969 -61.984375 C 51.167969 -60.839844 51.480469 -59.695312 52.3125 -58.863281 L 52.726562 -58.445312 C 53.765625 -57.40625 55.015625 -56.992188 56.261719 -56.992188 C 61.464844 -56.992188 67.808594 -63.855469 67.808594 -70.613281 C 67.808594 -71.863281 67.597656 -73.109375 67.078125 -74.359375 L 73.109375 -78.101562 C 74.152344 -78.726562 74.671875 -79.351562 74.671875 -79.976562 C 74.671875 -80.808594 73.941406 -81.535156 73.109375 -81.535156 C 72.695312 -81.535156 72.175781 -81.429688 71.550781 -81.015625 L 65.3125 -77.167969 C 62.191406 -81.222656 56.679688 -82.992188 50.542969 -82.992188 C 35.878906 -82.992188 13.9375 -72.382812 13.9375 -55.117188 C 13.9375 -49.191406 16.535156 -42.953125 18.925781 -37.648438 C 21.007812 -32.96875 22.671875 -29.015625 23.503906 -25.167969 C 11.335938 -20.589844 0 -13.519531 0 -5.511719 C 0 -0.9375 3.640625 2.390625 8.839844 2.390625 Z M 3.953125 -5.617188 C 3.953125 -11.335938 18.40625 -20.28125 22.566406 -20.28125 C 23.710938 -20.28125 24.023438 -19.550781 24.023438 -18.511719 L 24.023438 -18.097656 C 23.191406 -10.917969 15.390625 -2.496094 8.320312 -2.496094 C 5.71875 -2.496094 3.953125 -3.640625 3.953125 -5.617188 Z M 54.390625 -61.984375 C 54.390625 -64.269531 57.925781 -67.597656 59.488281 -68.847656 L 62.710938 -71.445312 C 62.816406 -71.136719 62.816406 -70.925781 62.816406 -70.71875 C 62.816406 -67.597656 58.34375 -60.839844 55.222656 -60.839844 C 55.015625 -60.839844 54.910156 -60.941406 54.808594 -60.941406 C 54.597656 -61.253906 54.390625 -61.671875 54.390625 -61.984375 Z M 54.390625 -61.984375 "/></g></g></g><g fill="rgb(98.039246%, 39.219666%, 24.708557%)" fill-opacity="1"><g transform="translate(221.606976, 92.762462)"><g><path d="M 11.128906 -5.71875 C 20.589844 -5.71875 28.496094 -10.191406 35.464844 -16.953125 C 35.878906 -17.367188 35.984375 -17.785156 35.984375 -18.097656 C 35.984375 -19.03125 35.046875 -19.757812 34.113281 -19.757812 C 33.695312 -19.757812 33.175781 -19.550781 32.863281 -19.238281 C 27.351562 -13.726562 20.488281 -9.359375 12.792969 -9.359375 C 9.046875 -9.359375 5.199219 -10.398438 5.199219 -13.832031 C 5.199219 -15.078125 5.617188 -16.222656 7.28125 -16.535156 C 13.105469 -17.054688 27.765625 -19.550781 27.765625 -27.039062 C 27.765625 -30.472656 24.648438 -33.070312 20.070312 -33.070312 C 11.128906 -33.070312 -1.039062 -23.085938 -1.039062 -14.144531 C -1.039062 -9.253906 2.808594 -5.71875 11.128906 -5.71875 Z M 19.96875 -27.976562 C 21.421875 -27.976562 22.777344 -27.144531 22.777344 -25.894531 C 22.777344 -22.046875 11.960938 -20.589844 9.566406 -20.070312 L 9.046875 -19.96875 C 8.113281 -19.96875 7.902344 -20.28125 7.902344 -20.695312 C 7.902344 -23.398438 16.640625 -27.976562 19.96875 -27.976562 Z M 19.96875 -27.976562 "/></g></g></g><g fill="rgb(98.039246%, 39.219666%, 24.708557%)" fill-opacity="1"><g transform="translate(254.260471, 92.762462)"><g><path d="M -2.390625 -12.167969 C -2.390625 -8.320312 0.3125 -5.511719 4.367188 -5.511719 C 6.03125 -5.511719 8.007812 -5.71875 10.085938 -7.070312 L 12.375 -8.527344 C 13.9375 -9.464844 15.289062 -10.296875 16.222656 -10.296875 C 16.742188 -10.296875 17.160156 -10.085938 17.367188 -9.566406 C 18.199219 -6.96875 20.695312 -5.40625 23.609375 -5.40625 C 29.953125 -5.40625 38.0625 -12.480469 42.953125 -16.742188 C 43.472656 -17.265625 43.785156 -17.886719 43.785156 -18.40625 C 43.785156 -19.238281 43.160156 -19.96875 42.222656 -19.96875 C 41.597656 -19.96875 40.976562 -19.65625 40.246094 -19.03125 C 37.542969 -16.742188 30.886719 -10.296875 26.105469 -10.296875 C 24.335938 -10.296875 23.917969 -11.230469 23.917969 -12.273438 C 23.917969 -16.742188 30.886719 -24.023438 33.589844 -26.105469 C 34.734375 -27.039062 35.046875 -27.765625 35.046875 -28.289062 C 35.046875 -29.535156 33.800781 -30.679688 32.449219 -30.679688 C 32.136719 -30.679688 31.824219 -30.574219 31.511719 -30.472656 C 29.535156 -30.472656 28.597656 -30.992188 27.351562 -31.511719 L 26.832031 -31.71875 C 25.0625 -32.449219 23.296875 -33.070312 21.421875 -33.070312 C 12.480469 -33.070312 -2.390625 -21.007812 -2.390625 -12.167969 Z M 3.433594 -14.351562 C 3.433594 -20.695312 15.601562 -29.535156 21.320312 -29.535156 C 23.296875 -29.535156 24.648438 -28.496094 24.648438 -26.625 C 24.648438 -21.527344 12.480469 -11.023438 6.863281 -11.023438 C 4.785156 -11.023438 3.433594 -12.167969 3.433594 -14.351562 Z M 3.433594 -14.351562 "/></g></g></g><g fill="rgb(98.039246%, 39.219666%, 24.708557%)" fill-opacity="1"><g transform="translate(294.60937, 92.762462)"><g><path d="M -5.511719 -8.839844 C -5.511719 -4.367188 0.414062 -1.871094 4.785156 -1.871094 C 7.488281 -1.871094 10.609375 -2.910156 13 -4.785156 C 15.183594 -5.929688 25.582031 -12.894531 29.535156 -16.742188 L 29.742188 -16.847656 C 30.160156 -17.265625 30.367188 -17.679688 30.367188 -18.199219 C 30.367188 -19.03125 29.535156 -19.757812 28.496094 -19.757812 C 28.078125 -19.757812 27.558594 -19.65625 27.144531 -19.238281 L 27.144531 -19.136719 C 24.648438 -16.640625 20.28125 -13.3125 18.304688 -13.3125 C 15.183594 -13.3125 14.664062 -21.421875 14.664062 -23.398438 C 14.664062 -27.558594 16.953125 -29.847656 21.320312 -31.199219 C 21.945312 -31.40625 23.191406 -31.71875 23.191406 -33.28125 C 23.191406 -34.945312 21.734375 -35.777344 20.175781 -35.777344 C 18.40625 -35.777344 16.222656 -34.734375 14.558594 -33.589844 C 12.167969 -31.925781 9.984375 -29.429688 7.695312 -27.039062 L 4.160156 -23.191406 L 0 -19.03125 C -0.207031 -18.824219 -0.3125 -18.511719 -0.3125 -18.199219 C -0.3125 -17.265625 0.519531 -16.328125 1.558594 -16.328125 C 1.871094 -16.328125 2.390625 -16.535156 2.703125 -16.953125 C 4.785156 -19.757812 7.382812 -21.113281 8.214844 -21.113281 C 9.984375 -21.113281 11.335938 -14.144531 11.335938 -12.167969 C 11.335938 -8.945312 7.59375 -6.65625 4.367188 -6.65625 C 2.496094 -6.65625 0.726562 -7.488281 0 -9.359375 C -0.519531 -10.816406 -1.664062 -11.542969 -2.910156 -11.542969 C -4.574219 -11.542969 -5.511719 -10.503906 -5.511719 -8.839844 Z M -5.511719 -8.839844 "/></g></g></g><g fill="rgb(98.039246%, 39.219666%, 24.708557%)" fill-opacity="1"><g transform="translate(353.348067, 53.569079)"><g><path d="M 6.640625 -13.078125 L 6.640625 -11.859375 L 4.109375 -11.859375 L 4.109375 0 L 2.703125 0 L 2.703125 -11.859375 L 0.171875 -11.859375 L 0.171875 -13.078125 Z M 6.640625 -13.078125 "/></g></g></g><g fill="rgb(98.039246%, 39.219666%, 24.708557%)" fill-opacity="1"><g transform="translate(360.160406, 53.569079)"><g><path d="M 10.546875 -13.078125 L 10.546875 0 L 9.234375 0 L 9.234375 -6.890625 C 9.234375 -8.222656 9.269531 -9.515625 9.34375 -10.765625 L 6.671875 -3.484375 L 5.21875 -3.484375 L 2.515625 -10.765625 C 2.597656 -9.554688 2.640625 -8.269531 2.640625 -6.90625 L 2.640625 0 L 1.34375 0 L 1.34375 -13.078125 L 2.984375 -13.078125 L 5.9375 -4.890625 L 8.890625 -13.078125 Z M 10.546875 -13.078125 "/></g></g></g></svg>